<svg height="512pt" viewBox="0 0 512 512" width="512pt" xmlns="http://www.w3.org/2000/svg"><path d="m332 212h26.359375l-43.164063 43.164062c-37.753906-17.933593-83.199218-17.578124-120.648437 1.101563-4.691406-2.300781-9.542969-4.34375-14.546875-6.113281v-38.152344h30v-90h-30v-30h-90v30h-30v90h30v38.152344c-53.535156 18.910156-90 69.507812-90 126.847656 0 74.4375 60.5625 135 135 135 20.886719 0 41.46875-4.84375 60.035156-14.0625 18.617188 9.195312 39.367188 14.0625 60.964844 14.0625 100.320312 0 165.820312-103.492188 122.847656-193.210938l43.152344-43.148437v26.359375h90v-180h-180zm-197 270c-57.898438 0-105-47.101562-105-105 0-47.597656 32.386719-89.226562 78.761719-101.234375l11.238281-2.914063v-90.851562h-30v-30h30v-30h30v30h30v30h-30v90.851562l11.238281 2.914063c46.375 12.007813 78.761719 53.636719 78.761719 101.234375 0 13.355469-2.550781 26.589844-7.445312 38.890625-3.445313-1.941406-6.609376-4.304687-9.375-7.070313-8.484376-8.484374-13.15625-19.785156-13.15625-31.820312 0-41.355469-33.65625-75-75.023438-75-41.355469 0-75 33.644531-75 75s33.644531 75 75 75c2.496094 0 4.984375-.128906 7.457031-.375 6.363281 9.554688 13.910157 18.265625 22.558594 26.003906-9.691406 2.878906-19.804687 4.371094-30.015625 4.371094zm127.375-149.503906c10.039062 1.410156 19.582031 5.820312 26.445312 12.683594 25.929688 25.929687 11.859376 71.265624-26.378906 76.359374 4.96875-14.25 7.558594-29.332031 7.558594-44.539062 0-15.492188-2.683594-30.484375-7.625-44.503906zm-141.183594 62.449218c1.214844 9.09375 3.316406 17.921876 6.25 26.40625-21.226562-3.605468-37.441406-22.117187-37.441406-44.351562 0-22.265625 16.257812-40.792969 37.519531-44.367188-6.867187 19.871094-9.125 41.351563-6.328125 62.3125zm240.808594-242.945312h120v120h-30v-68.785156l-110.4375 110.433594 5.914062 10.011718c40.992188 69.40625-8.160156 158.175782-91.476562 158.175782-77.078125 0-125.464844-76.167969-98.527344-143.804688 13.464844 7.789062 22.550782 22.332031 22.550782 38.96875 0 40.667969 32.371093 74.976562 75.976562 74.976562 68.136719 0 101.109375-80.929687 54.03125-128.011718-16.035156-16.035156-39.726562-23.949219-62.726562-21.542969-6.394532-9.550781-13.988282-18.28125-22.621094-25.941406 53.742187-16.113281 91.839844 14.566406 95.667968 15.953125l110.433594-110.433594h-68.785156zm0 0"/><path d="m275.140625 11.707031c-7.792969-7.625-17.542969-11.707031-28.371094-11.707031-23.964843 0-42.742187 19.816406-42.742187 45.113281 0 30.46875 27.664062 49.933594 61.664062 79.398438l9.824219 8.511719 9.824219-8.511719c27.183594-23.5625 61.660156-44.109375 61.660156-79.398438 0-25.296875-18.773438-45.113281-42.742188-45.113281-10.875 0-21.128906 4.226562-29.117187 11.707031zm41.859375 33.40625c0 17.773438-25.621094 35.371094-41.394531 48.367188-21.175781-18.078125-41.578125-34.457031-41.578125-48.367188 0-7.507812 4.378906-15.113281 12.742187-15.113281 1.722657 0 6.296875 0 10.796875 7.621094l4.351563 7.378906h26.191406l4.351563-7.378906c1.054687-1.785156 5.023437-7.621094 11.796874-7.621094 8.363282 0 12.742188 7.605469 12.742188 15.113281zm0 0"/></svg>